<?xml version="1.0" standalone="no"?>
<!DOCTYPE svg PUBLIC "-//W3C//DTD SVG 20010904//EN"
 "http://www.w3.org/TR/2001/REC-SVG-20010904/DTD/svg10.dtd">
<svg version="1.0" xmlns="http://www.w3.org/2000/svg"
 width="200.000000pt" height="200.000000pt" viewBox="0 0 200.000000 200.000000"
 preserveAspectRatio="xMidYMid meet">

<g transform="translate(0.000000,200.000000) scale(0.100000,-0.100000)"
fill="#000000" stroke="none">
<path d="M1534 1291 c-21 -16 -66 -52 -99 -81 -61 -53 -81 -64 -125 -74 -14
-3 -45 -24 -70 -47 -30 -27 -35 -34 -14 -20 30 19 31 19 46 1 15 -17 15 -20
-1 -34 -25 -22 -38 -20 -17 3 14 15 15 21 4 27 -7 4 -10 4 -6 -1 4 -4 2 -15
-4 -23 -16 -19 -19 -44 -5 -35 51 29 96 69 101 90 5 17 44 48 136 108 95 62
128 88 124 100 -9 22 -26 19 -70 -14z"/>
<path d="M1399 1070 c-115 -96 -275 -163 -436 -184 l-94 -11 38 -37 c58 -56
124 -82 208 -81 39 0 87 8 108 16 20 9 37 12 37 8 0 -18 -88 -44 -160 -48
-109 -7 -176 20 -256 102 -45 47 -70 64 -98 69 -20 4 -45 10 -53 13 -29 11 48
-116 96 -159 174 -153 415 -141 571 28 58 63 93 144 98 224 7 113 5 114 -59
60z"/>
<path d="M396 1082 c-13 -21 22 -35 164 -68 140 -33 155 -38 185 -70 25 -26
40 -34 68 -34 50 0 67 9 67 35 0 47 -80 82 -129 55 -14 -7 -56 3 -167 40 -149
50 -179 57 -188 42z"/>
<path d="M1219 1043 c-13 -16 -12 -17 4 -4 9 7 17 15 17 17 0 8 -8 3 -21 -13z"/>
<path d="M450 505 c0 -74 16 -105 22 -42 3 28 7 32 36 35 31 3 32 2 32 -32 0
-25 4 -36 15 -36 12 0 15 15 15 75 0 60 -3 75 -15 75 -10 0 -15 -10 -15 -31 0
-28 -2 -30 -32 -27 -28 2 -34 8 -36 31 -7 57 -22 24 -22 -48z"/>
<path d="M800 506 c0 -41 5 -78 10 -81 11 -7 11 -5 14 75 3 60 -1 80 -15 80
-5 0 -9 -33 -9 -74z"/>
<path d="M840 505 l0 -75 39 0 c40 0 40 0 43 43 2 34 7 42 23 42 16 0 21 -8
23 -42 2 -29 8 -43 18 -43 10 0 14 12 14 40 0 50 -30 86 -60 70 -15 -8 -19 -6
-22 12 -4 28 -28 36 -28 9 0 -27 -16 -27 -23 -1 -3 11 -10 20 -16 20 -7 0 -11
-27 -11 -75z m50 -21 c0 -27 -4 -43 -10 -39 -5 3 -10 24 -10 46 0 21 5 39 10
39 6 0 10 -21 10 -46z"/>
<path d="M1120 505 c0 -59 3 -75 14 -75 9 0 16 12 18 33 2 26 7 32 27 32 13 0
26 6 29 13 2 8 -7 12 -28 12 -25 0 -31 4 -28 18 3 13 12 16 41 14 28 -2 37 1
37 13 0 12 -12 15 -55 15 l-55 0 0 -75z"/>
<path d="M1530 555 c0 -23 -2 -24 -20 -15 -27 14 -60 -4 -60 -33 -1 -21 -2
-21 -15 4 -8 15 -23 29 -33 31 -26 7 -62 -9 -62 -27 0 -22 -17 -18 -23 5 -4
15 -14 20 -41 20 -40 0 -59 -24 -54 -68 5 -47 84 -64 95 -20 7 23 19 23 26 -1
8 -31 56 -33 83 -3 18 19 24 21 24 9 0 -26 33 -38 69 -26 31 11 31 12 31 80 0
39 -4 69 -10 69 -5 0 -10 -11 -10 -25z m-235 -70 c0 -23 -4 -30 -20 -30 -15 0
-21 8 -23 33 -3 30 -1 33 20 30 18 -2 23 -9 23 -33z m113 7 c5 -32 -16 -56
-34 -41 -15 12 -19 51 -7 63 14 13 38 0 41 -22z m117 9 c8 -26 -4 -51 -25 -51
-10 0 -21 7 -24 16 -10 25 3 54 24 54 10 0 21 -8 25 -19z"/>
<path d="M620 542 c-62 -18 -44 -129 18 -117 9 2 20 4 23 4 4 1 10 8 13 16 5
13 0 15 -29 9 -28 -5 -35 -3 -35 10 0 11 9 16 33 16 42 0 48 6 35 35 -11 25
-33 35 -58 27z m35 -37 c0 -5 -10 -11 -22 -13 -16 -2 -23 2 -23 13 0 11 7 15
23 13 12 -2 22 -7 22 -13z"/>
<path d="M723 542 c-34 -5 -28 -22 7 -22 40 0 38 -15 -2 -26 -25 -8 -33 -15
-33 -33 0 -35 25 -47 61 -30 30 15 40 43 30 84 -6 24 -27 33 -63 27z m37 -76
c0 -15 -24 -28 -34 -19 -13 14 -5 33 14 33 11 0 20 -6 20 -14z"/>
<path d="M1000 537 c0 -2 9 -30 20 -62 18 -53 19 -59 3 -70 -10 -8 -12 -14 -5
-19 22 -13 40 8 65 80 23 66 25 75 10 72 -10 -2 -22 -20 -29 -43 l-11 -40 -12
43 c-7 25 -18 42 -26 42 -8 0 -15 -2 -15 -3z"/>
<path d="M856 354 c-3 -9 -4 -19 -1 -22 3 -3 5 1 5 9 0 11 2 11 10 -1 5 -8 10
-10 10 -5 0 6 -4 16 -9 23 -6 11 -10 10 -15 -4z"/>
<path d="M1180 355 c-7 -9 -11 -17 -9 -20 3 -2 10 5 17 15 14 24 10 26 -8 5z"/>
<path d="M677 341 c-4 -17 -3 -21 5 -13 5 5 8 16 6 23 -3 8 -7 3 -11 -10z"/>
<path d="M791 344 c0 -11 3 -14 6 -6 3 7 2 16 -1 19 -3 4 -6 -2 -5 -13z"/>
<path d="M986 347 c3 -10 9 -15 12 -12 3 3 0 11 -7 18 -10 9 -11 8 -5 -6z"/>
<path d="M1121 343 c-1 -16 5 -23 17 -23 10 0 13 3 6 8 -6 4 -14 14 -17 22 -4
10 -6 8 -6 -7z"/>
<path d="M1320 340 c-6 -11 -8 -20 -6 -20 3 0 10 9 16 20 6 11 8 20 6 20 -3 0
-10 -9 -16 -20z"/>
<path d="M580 341 c0 -10 19 -25 25 -20 1 2 -3 10 -11 17 -8 7 -14 8 -14 3z"/>
<path d="M1202 334 c-7 -8 -8 -14 -3 -14 10 0 25 19 20 25 -2 1 -10 -3 -17
-11z"/>
<path d="M1270 330 c-9 -6 -10 -10 -3 -10 6 0 15 5 18 10 8 12 4 12 -15 0z"/>
</g>
</svg>
